<?xml version="1.0" encoding="UTF-8" standalone="no"?>
<svg
   xmlns:dc="http://purl.org/dc/elements/1.1/"
   xmlns:cc="http://creativecommons.org/ns#"
   xmlns:rdf="http://www.w3.org/1999/02/22-rdf-syntax-ns#"
   xmlns:svg="http://www.w3.org/2000/svg"
   xmlns="http://www.w3.org/2000/svg"
   xmlns:sodipodi="http://sodipodi.sourceforge.net/DTD/sodipodi-0.dtd"
   xmlns:inkscape="http://www.inkscape.org/namespaces/inkscape"
   color-interpolation="auto"
   color-rendering="auto"
   font-size="12"
   font-style="normal"
   font-weight="normal"
   height="1175"
   image-rendering="auto"
   shape-rendering="auto"
   stroke-miterlimit="10"
   text-rendering="auto"
   width="1400"
   id="svg3421"
   sodipodi:version="0.32"
   inkscape:version="0.46"
   sodipodi:docname="Vatican_City_location_map.svg"
   inkscape:output_extension="org.inkscape.output.svg.inkscape"
   inkscape:export-filename="E:\data\gis\kartenwerkstatt\vatican\Vatican_City_location_map.png"
   inkscape:export-xdpi="68"
   inkscape:export-ydpi="68"
   version="1.0"
   style="font-size:12px;font-style:normal;font-weight:normal;fill:#000000;fill-opacity:1;stroke:#000000;stroke-width:1;stroke-linecap:square;stroke-linejoin:miter;stroke-miterlimit:10;stroke-dasharray:none;stroke-dashoffset:0;stroke-opacity:1;display:inline;enable-background:new;font-family:Dialog">
  <metadata
     id="metadata3539">
    <rdf:RDF>
      <cc:Work
         rdf:about="">
        <dc:format>image/svg+xml</dc:format>
        <dc:type
           rdf:resource="http://purl.org/dc/dcmitype/StillImage" />
      </cc:Work>
    </rdf:RDF>
  </metadata>
  <sodipodi:namedview
     inkscape:window-height="480"
     inkscape:window-width="640"
     inkscape:pageshadow="2"
     inkscape:pageopacity="0.0"
     guidetolerance="10.0"
     gridtolerance="10.0"
     objecttolerance="10.0"
     borderopacity="1.0"
     bordercolor="#666666"
     pagecolor="#ffffff"
     id="base"
     showgrid="false"
     inkscape:zoom="0.20910158"
     inkscape:cx="150.02806"
     inkscape:cy="587.5"
     inkscape:current-layer="layer3" />
<!--Generated by the Batik Graphics2D SVG Generator-->  <defs
     id="genericDefs">
    <inkscape:perspective
       sodipodi:type="inkscape:persp3d"
       inkscape:vp_x="0 : 745.5 : 1"
       inkscape:vp_y="0 : 1000 : 0"
       inkscape:vp_z="1400 : 745.5 : 1"
       inkscape:persp3d-origin="700 : 497 : 1"
       id="perspective3541" />
    <defs
       id="defs1">
      <clipPath
         id="clipPath1"
         clipPathUnits="userSpaceOnUse">
        <path
           id="path3428"
           d="M 0,0 L 1400,0 L 1400,1491 L 0,1491 L 0,0 z" />
      </clipPath>
    </defs>
    <inkscape:perspective
       id="perspective3767"
       inkscape:persp3d-origin="372.04724 : 350.78739 : 1"
       inkscape:vp_z="744.09448 : 526.18109 : 1"
       inkscape:vp_y="0 : 1000 : 0"
       inkscape:vp_x="0 : 526.18109 : 1"
       sodipodi:type="inkscape:persp3d" />
    <inkscape:perspective
       id="perspective3781"
       inkscape:persp3d-origin="372.04724 : 350.78739 : 1"
       inkscape:vp_z="744.09448 : 526.18109 : 1"
       inkscape:vp_y="0 : 1000 : 0"
       inkscape:vp_x="0 : 526.18109 : 1"
       sodipodi:type="inkscape:persp3d" />
    <filter
       inkscape:collect="always"
       id="filter4082">
      <feBlend
         inkscape:collect="always"
         mode="multiply"
         in2="BackgroundImage"
         id="feBlend4084" />
    </filter>
  </defs>
  <g
     inkscape:groupmode="layer"
     id="layer3"
     inkscape:label="base"
     style="display:inline"
     transform="translate(0,-151.99552)">
    <g
       style="font-size:12px;font-style:normal;font-weight:normal;opacity:1;fill:#e0e0e0;fill-opacity:1;fill-rule:evenodd;stroke:none;stroke-width:1px;stroke-linecap:butt;stroke-linejoin:miter;marker:none;marker-start:none;marker-mid:none;marker-end:none;stroke-miterlimit:4;stroke-dasharray:none;stroke-dashoffset:0;stroke-opacity:1;visibility:visible;display:inline;overflow:visible;filter:url(#filter4082);enable-background:accumulate;font-family:Dialog"
       id="g4086"
       transform="translate(0,151.99552)">
      <defs
         id="defs4088">
        <clipPath
           clipPathUnits="userSpaceOnUse"
           id="clipPath4090">
          <path
             d="M 0,0 L 1400,0 L 1400,1175 L 0,1175 L 0,0 z"
             id="path4092" />
        </clipPath>
      </defs>
      <g
         text-rendering="optimizeLegibility"
         id="g4094"
         style="fill:#e0e0e0;fill-opacity:1;fill-rule:evenodd;stroke:none;stroke-width:1px;stroke-linecap:butt;stroke-linejoin:miter;marker:none;marker-start:none;marker-mid:none;marker-end:none;stroke-miterlimit:4;stroke-dasharray:none;stroke-dashoffset:0;stroke-opacity:1;visibility:visible;display:inline;overflow:visible;enable-background:accumulate">
        <rect
           clip-path="url(#clipPath1)"
           height="1175"
           width="1400"
           x="0"
           y="0"
           id="rect4096"
           style="fill:#e0e0e0;fill-opacity:1;fill-rule:evenodd;stroke:none;stroke-width:1px;stroke-linecap:butt;stroke-linejoin:miter;marker:none;marker-start:none;marker-mid:none;marker-end:none;stroke-miterlimit:4;stroke-dasharray:none;stroke-dashoffset:0;stroke-opacity:1;visibility:visible;display:inline;overflow:visible;enable-background:accumulate" />
      </g>
      <g
         stroke-miterlimit="1"
         text-rendering="optimizeLegibility"
         id="g4098"
         style="fill:#e0e0e0;fill-opacity:1;fill-rule:evenodd;stroke:none;stroke-width:1px;stroke-linecap:butt;stroke-linejoin:miter;marker:none;marker-start:none;marker-mid:none;marker-end:none;stroke-miterlimit:4;stroke-dasharray:none;stroke-dashoffset:0;stroke-opacity:1;visibility:visible;display:inline;overflow:visible;enable-background:accumulate">
        <path
           clip-path="url(#clipPath1)"
           d="M 1012.6667,118.0433 L 1039.1694,257.1355 L 1227.7513,316.0497 L 1221.1888,630.3812 L 1218.9722,639.3264 L 1230.5028,643.7358 L 1239.9819,649.0927 L 1248.3917,655.2078 L 1252.2028,882.0333 L 1241.6444,889.1465 L 1230.3278,895.1226 L 1218.6805,899.2793 L 1206.2069,901.9705 L 1193.1014,902.7791 L 1177.7598,902.3369 L 1165.0431,900.4543 L 1148.0972,894.0865 L 1131.8319,884.0548 L 1120.3889,874.5917 L 1113.1263,866.0508 L 1103.1028,853.568 L 1098.0181,845.0145 L 1094.7805,845.1156 L 1093.05,841.0726 L 1076.8722,843.3594 L 992.8722,855.2358 L 952.2236,860.9844 L 906.6847,867.0237 L 906.9764,877.1943 L 908.3554,925.077 L 908.3554,925.077 M 908.3554,925.077 L 920.043,924.3333 L 908.3554,925.077 L 908.3554,925.077 M 908.3554,925.077 L 569.3722,946.6457 L 362.9695,922.1349 L 361.1417,944.561 L 282.5472,961.3522 L 264.6972,944.0809 L 284.1708,921.1747 L 164.4125,821.6535 L 147.5347,842.058 L 71.9153,802.1965 L 153.0472,751.9747 L 178.3639,771.7476 L 276.3736,671.2914 L 263.9583,655.271 L 280.6514,620.5643 L 327.3278,584.3414 L 352.6444,596.2682 L 371.7486,533.2479 L 393.1667,458.6669 L 370.6403,452.2108 L 377.6403,411.8185 L 411.8528,394.8632 L 431.0444,414.2317 L 536.6959,309.3661 L 517.825,298.0204 L 537.5319,229.4788 L 618.8,219.725 L 624.3125,243.1871 L 677.7167,234.3177 L 676.8903,228.6575 L 731.4514,211.6642 L 793.5278,204.2605 L 794.8694,210.047 L 860.7958,191.4871 L 856.275,178.3726 L 854.1166,172.1185 L 1012.6667,118.0433 L 1012.6667,118.0433"
           id="path4100"
           style="fill:#e0e0e0;fill-opacity:1;fill-rule:evenodd;stroke:none;stroke-width:1px;stroke-linecap:butt;stroke-linejoin:miter;marker:none;marker-start:none;marker-mid:none;marker-end:none;stroke-miterlimit:4;stroke-dasharray:none;stroke-dashoffset:0;stroke-opacity:1;visibility:visible;display:inline;overflow:visible;enable-background:accumulate" />
        <path
           clip-path="url(#clipPath1)"
           d="M 1012.6667,118.0433 L 1039.1694,257.1355 L 1227.7513,316.0497 L 1221.1888,630.3812 L 1218.9722,639.3264 L 1230.5028,643.7358 L 1239.9819,649.0927 L 1248.3917,655.2078 L 1252.2028,882.0333 L 1241.6444,889.1465 L 1230.3278,895.1226 L 1218.6805,899.2793 L 1206.2069,901.9705 L 1193.1014,902.7791 L 1177.7598,902.3369 L 1165.0431,900.4543 L 1148.0972,894.0865 L 1131.8319,884.0548 L 1128.5847,881.3763 L 1120.3889,874.5917 L 1113.1263,866.0508 L 1103.1028,853.568 L 1098.0181,845.0145 L 1094.7805,845.1156 L 1093.05,841.0726 L 1076.8722,843.3594 L 992.8722,855.2358 L 952.2236,860.9844 L 906.6847,867.0237 L 908.3555,925.077 L 908.3555,925.077 M 908.3555,925.077 L 920.043,924.3333 L 908.3555,925.077 L 908.3555,925.077 M 908.3555,925.077 L 569.3722,946.6457 L 362.9695,922.1349 L 361.1417,944.561 L 282.5472,961.3522 L 264.6972,944.0809 L 284.1708,921.1747 L 164.4125,821.6535 L 147.5347,842.058 L 71.9153,802.1965 L 153.0472,751.9747 L 178.3639,771.7476 L 276.3736,671.2914 L 263.9583,655.271 L 280.6514,620.5643 L 327.3278,584.3414 L 352.6444,596.2682 L 371.7486,533.2479 L 393.1667,458.6669 L 370.6403,452.2108 L 377.6403,411.8185 L 411.8528,394.8632 L 431.0444,414.2317 L 536.6959,309.3661 L 517.825,298.0204 L 537.5319,229.4788 L 618.8,219.725 L 624.3125,243.1871 L 677.7167,234.3177 L 676.8903,228.6575 L 731.4514,211.6642 L 793.5278,204.2605 L 794.8694,210.047 L 860.7958,191.4871 L 856.275,178.3726 L 854.1166,172.1185 L 1012.6667,118.0433 L 1012.6667,118.0433"
           id="path4102"
           style="fill:#e0e0e0;fill-opacity:1;fill-rule:evenodd;stroke:none;stroke-width:1px;stroke-linecap:butt;stroke-linejoin:miter;marker:none;marker-start:none;marker-mid:none;marker-end:none;stroke-miterlimit:4;stroke-dasharray:none;stroke-dashoffset:0;stroke-opacity:1;visibility:visible;display:inline;overflow:visible;enable-background:accumulate" />
      </g>
    </g>
    <path
       clip-path="url(#clipPath1)"
       d="M 1012.6667,269.6815 L 1012.6667,269.6815 L 854.1166,323.7618 L 856.275,330.0164 L 860.7958,343.1322 L 794.8694,361.6938 L 793.5278,355.9068 L 731.4514,363.3112 L 676.8903,380.3061 L 677.7167,385.9668 L 624.3125,394.837 L 618.8,371.3727 L 537.5319,381.1274 L 517.825,449.6755 L 536.6959,461.0222 L 431.0444,565.8977 L 411.8528,546.5273 L 377.6403,563.4843 L 370.6403,603.8802 L 393.1667,610.337 L 371.7486,684.925 L 352.6444,747.9513 L 327.3278,736.0233 L 280.6514,772.2496 L 263.9583,806.9595 L 276.3736,822.9814 L 178.3639,923.4471 L 153.0472,903.6724 L 71.9153,953.8989 L 147.5347,993.7642 L 164.4125,973.3577 L 284.1708,1072.8882 L 264.6972,1095.7965 L 282.5472,1113.0695 L 361.1417,1096.2767 L 362.9695,1073.8485 L 569.3722,1098.3616 L 567.09444,1132.8927 L 660.91687,1159.3732 L 753.54859,1163.8303 L 756.41881,1142.6086 L 923.76459,1176.5204 L 928.79683,1150.0115 L 922.04766,1075.6499 L 908.3555,1076.7909 L 908.3555,1076.7909 L 908.3555,1076.7909 M 1012.6667,269.6815 L 1039.1694,408.7867 L 1227.7513,467.7065 L 1221.1888,782.0674 L 1218.9722,791.0134 L 1230.5028,795.4232 L 1239.9819,800.7807 L 1248.3917,806.8964 C 1248.3917,806.8964 1263.197,822.77141 1268.586,830.37622 C 1273.9749,837.98104 1279.6982,845.13372 1283.3596,853.4637 C 1287.021,861.79368 1293.1287,870.1475 1294.9801,886.97452 C 1296.8315,903.80154 1298.8884,913.98132 1297.4626,931.95645 C 1296.0396,949.89557 1291.8115,977.21034 1288.634,984.63657 C 1285.4565,992.0628 1280.208,1001.2193 1274.4133,1008.7994 C 1268.6185,1016.3795 1257.4136,1029.1904 1252.2028,1033.7432 C 1246.992,1038.2959 1244.9215,1038.8952 1241.6444,1040.8569 C 1238.3501,1042.8289 1233.8423,1045.2878 1230.3278,1046.8336 C 1226.9317,1048.3273 1218.6805,1050.9907 1218.6805,1050.9907 L 1206.2069,1053.6821 L 1193.1014,1054.4908 L 1177.7598,1054.0486 L 1165.0431,1052.1659 L 1148.0972,1045.7975 L 1131.8319,1035.7649 L 1128.5847,1033.0861 L 1120.3889,1026.3008 L 1113.1263,1017.7592 L 1103.1028,1005.2751 L 1098.0181,996.7209 L 1094.7805,996.822 L 1093.05,992.7786 L 1076.8722,995.0656 L 992.8722,1006.9431 L 952.2236,1012.6923 L 906.6847,1018.7321 L 908.3555,1076.7909 L 908.3555,1076.7909"
       id="path3789"
       style="opacity:1;fill:#fefee9;fill-opacity:1;fill-rule:evenodd;stroke:none;stroke-width:10;stroke-linecap:butt;stroke-linejoin:miter;marker:none;marker-start:none;marker-mid:none;marker-end:none;stroke-miterlimit:4;stroke-dasharray:none;stroke-dashoffset:0;stroke-opacity:1;visibility:visible;display:inline;overflow:visible;enable-background:accumulate"
       sodipodi:nodetypes="ccccccccccccccccccccccccccccccccccccccccccccccccccccccczzzzzzzsscccccccccccccccccccc" />
    <path
       id="path3891"
       style="opacity:1;fill:#f5f5f5;fill-opacity:1;fill-rule:evenodd;stroke:none;stroke-width:7;stroke-linecap:butt;stroke-linejoin:miter;marker:none;marker-start:none;marker-mid:none;marker-end:none;stroke-miterlimit:4;stroke-dasharray:none;stroke-dashoffset:0;stroke-opacity:1;visibility:visible;display:inline;overflow:visible;enable-background:accumulate"
       d="M 908.3555,1076.7909 L 908.3555,1076.7909 L 906.6847,1018.7321 L 952.2236,1012.6923 L 992.8722,1006.9431 L 1076.8722,995.0656 L 1093.05,992.7786 L 1094.7805,996.822 L 1098.0181,996.7209 L 1103.1028,1005.2751 L 1113.1263,1017.7592 L 1117.7615,1028.8486 L 1116.7844,1154.8899 L 928.21101,1156.844 L 928.79683,1150.0115 L 922.04766,1075.6499 L 908.3555,1076.7909 L 908.3555,1076.7909 L 908.3555,1076.7909"
       sodipodi:nodetypes="ccccccccccccccccccc" />
  </g>
  <g
     inkscape:groupmode="layer"
     id="layer1"
     inkscape:label="buildings"
     style="display:inline"
     transform="translate(0,-151.99552)">
    <path
       style="opacity:1;fill:#f6e1b9;fill-opacity:1;fill-rule:evenodd;stroke:none;stroke-width:1px;stroke-linecap:butt;stroke-linejoin:miter;marker:none;marker-start:none;marker-mid:none;marker-end:none;stroke-miterlimit:4;stroke-dasharray:none;stroke-dashoffset:0;stroke-opacity:1;visibility:visible;display:inline;overflow:visible;enable-background:accumulate"
       d="M 575.3125,977.4011 L 582.0306,939.9997 L 568.5944,937.8516 L 572.3278,917.3946 L 583.45,918.7466 L 585.9583,905.8583 L 587.0472,900.2481 L 589.293,888.7118 L 578.6959,886.728 L 582.3611,869.2277 L 592.8806,870.5797 L 600.3472,840.1785 L 632.0514,845.8392 L 629.9611,855.6697 L 602.8458,983.0618 L 575.3125,977.4011 z"
       id="path3996" />
    <path
       style="opacity:1;fill:#f6e1b9;fill-opacity:1;fill-rule:evenodd;stroke:none;stroke-width:1px;stroke-linecap:butt;stroke-linejoin:miter;marker:none;marker-start:none;marker-mid:none;marker-end:none;stroke-miterlimit:4;stroke-dasharray:none;stroke-dashoffset:0;stroke-opacity:1;visibility:visible;display:inline;overflow:visible;enable-background:accumulate"
       d="M 1017.7125,1115.1038 L 1010.207,1071.511 L 1004.3639,1055.3627 L 1081.9667,1039.2271 L 1097.8236,1115.1038 L 1017.7125,1115.1038 z"
       id="path3994" />
    <path
       style="opacity:1;fill:#f6e1b9;fill-opacity:1;fill-rule:evenodd;stroke:none;stroke-width:1px;stroke-linecap:butt;stroke-linejoin:miter;marker:none;marker-start:none;marker-mid:none;marker-end:none;stroke-miterlimit:4;stroke-dasharray:none;stroke-dashoffset:0;stroke-opacity:1;visibility:visible;display:inline;overflow:visible;enable-background:accumulate"
       d="M 906.3834,1024.317 L 952,1023.243 L 974.8083,1022.6996 L 974.3222,1057.7887 L 907.5597,1075.5417 L 906.3834,1024.317 z"
       id="path3992" />
    <path
       style="opacity:1;fill:#f6e1b9;fill-opacity:1;fill-rule:evenodd;stroke:none;stroke-width:1px;stroke-linecap:butt;stroke-linejoin:miter;marker:none;marker-start:none;marker-mid:none;marker-end:none;stroke-miterlimit:4;stroke-dasharray:none;stroke-dashoffset:0;stroke-opacity:1;visibility:visible;display:inline;overflow:visible;enable-background:accumulate"
       d="M 972.0764,991.4897 L 967.332,991.4897 L 951.1931,991.8182 L 943.6972,991.4897 L 943.6972,976.9588 L 905.3139,976.9588 L 905.3139,990.681 L 882.7486,990.7316 L 873.5709,990.7568 L 848.1375,990.8074 L 841.5458,998.6541 L 837.2875,1003.721 L 831.4445,1013.4125 L 818.9319,1019.0606 L 805.5736,1019.0606 L 793.8972,1013.4125 L 788.6959,1005.869 L 786.1972,1001.8256 L 783.6889,1001.8256 L 773.675,994.5602 L 773.675,991.3381 L 761.9986,991.3381 L 761.9986,993.7515 L 757.575,993.7515 L 746.9778,993.7515 L 746.9778,979.2206 L 749.4764,979.2206 L 749.4764,967.1157 L 746.9778,967.1157 L 739.4625,955.8195 L 730.9167,951.1317 L 722.5653,941.4401 L 717.8694,928.2107 L 721.7292,914.8043 L 730.9167,904.3168 L 738.0139,901.5875 L 738.0139,899.1741 L 744.6931,891.0999 L 747.1917,891.0999 L 747.1917,881.4084 L 744.6931,881.4084 L 744.6931,869.3035 L 758.8778,869.3035 L 758.8778,871.7296 L 771.3903,871.7296 L 771.3903,868.4949 L 781.4042,863.6555 L 783.9125,863.6555 L 785.575,854.7726 L 792.2542,847.5071 L 802.2681,843.4764 L 813.9542,843.4764 L 823.5403,847.8104 L 829.8111,854.7726 L 832.3097,864.4641 L 834.5944,863.7944 L 844.6083,868.6339 L 844.6083,871.8686 L 903.6417,871.2115 L 903.6417,884.9338 L 944.5333,884.9338 L 944.5333,866.3721 L 948.1403,866.3721 L 969.0042,866.6501 L 973.4472,866.6501 L 972.0764,991.4897 z"
       id="path3990" />
    <path
       style="opacity:1;fill:#f6e1b9;fill-opacity:1;fill-rule:evenodd;stroke:none;stroke-width:1px;stroke-linecap:butt;stroke-linejoin:miter;marker:none;marker-start:none;marker-mid:none;marker-end:none;stroke-miterlimit:4;stroke-dasharray:none;stroke-dashoffset:0;stroke-opacity:1;visibility:visible;display:inline;overflow:visible;enable-background:accumulate"
       d="M 951.1931,991.8182 L 967.332,991.4897 L 967.5167,996.2407 L 1111.8722,974.7602 L 1116.0819,975.5689 L 1123.1694,988.7983 L 1119.4556,988.7099 L 1126.4362,999.5007 L 1133.5042,1007.2211 L 1139.9403,1013.7158 L 1149.6139,1021.0949 L 1158.3833,1026.5914 L 1174.9695,1032.1259 L 1184.3125,1032.4291 L 1184.3903,1029.7377 L 1201.0638,1029.447 L 1201.1125,1032.0247 L 1211.7487,1030.6348 L 1220.7513,1028.3604 L 1230.532,1022.9018 L 1240.2639,1016.1671 L 1244.493,1012.1868 L 1250.8903,1005.629 L 1256.6847,997.6306 L 1262.2167,989.5312 L 1265.8722,981.8488 L 1270.85,970.2366 L 1273.757,969.8323 L 1290.4305,979.309 L 1291.3055,982.1394 L 1285.093,993.0944 L 1278.9778,1001.0043 L 1272.4055,1011.8077 L 1262.1,1025.0245 L 1252.2028,1033.7432 L 1241.6444,1040.8569 L 1230.3278,1046.8336 L 1218.6805,1050.9907 L 1206.2069,1053.6821 L 1193.1014,1054.4908 L 1177.7598,1054.0486 L 1165.0431,1052.1659 L 1148.0972,1045.7975 L 1131.8319,1035.7649 L 1120.3889,1026.3008 L 1113.1263,1017.7592 L 1103.1028,1005.2751 L 1098.0181,996.7209 L 1094.7805,996.822 L 1093.05,992.7786 L 1076.8722,995.0656 L 992.8722,1006.9431 L 952.2236,1012.6923 L 951.1931,991.8182 z"
       id="path3988" />
    <path
       style="opacity:1;fill:#f6e1b9;fill-opacity:1;fill-rule:evenodd;stroke:none;stroke-width:1px;stroke-linecap:butt;stroke-linejoin:miter;marker:none;marker-start:none;marker-mid:none;marker-end:none;stroke-miterlimit:4;stroke-dasharray:none;stroke-dashoffset:0;stroke-opacity:1;visibility:visible;display:inline;overflow:visible;enable-background:accumulate"
       d="M 1090.0945,849.0866 L 1091.3292,846.5974 L 1093.9833,845.1696 L 1097.7264,846.2815 L 1101.9264,838.8517 L 1108.9556,829.1476 L 1115.6736,820.5933 L 1124.5792,811.3693 L 1132.9889,804.4072 L 1145.0153,797.0027 L 1154.9028,792.1254 L 1168.0958,788.4105 L 1179.0723,786.8057 L 1194.7931,786.7805 L 1206.7125,788.3978 L 1218.9722,791.0134 L 1230.5125,795.4232 L 1239.9819,800.7807 L 1248.3917,806.8964 L 1256.1694,813.669 L 1262.1097,819.9489 L 1268.1375,827.8841 L 1274.282,837.3734 L 1282.4875,848.4548 L 1281.7097,851.5379 L 1264.3458,861.0272 L 1263.2278,858.8665 L 1261.2056,859.9785 L 1254.8472,848.5306 L 1256.8694,847.4313 L 1251.5806,839.5467 L 1245.9028,832.913 L 1239.0778,826.3552 L 1231.0181,819.8352 L 1221.1111,814.2502 L 1210.9319,810.3585 L 1202.6194,808.2989 L 1194.6083,807.4144 L 1194.657,810.3838 L 1179.4708,810.6112 L 1179.4319,807.6292 L 1170.2542,808.7664 L 1160.843,811.8369 L 1151.8889,816.2341 L 1143.7709,821.9832 L 1136.6833,828.4653 L 1130.6361,835.099 L 1125.7264,841.4547 L 1118.9791,850.8682 L 1122.2556,850.8809 L 1116.8014,862.3666 L 1113.4277,862.5435 L 1110.7931,864.4388 L 1103.8806,866.2331 L 1098.1444,864.1988 L 1091.4556,866.0688 L 969.0042,861.8106 L 969.0042,866.6501 L 948.1403,866.3721 L 947.5569,848.9729 L 986.7764,849.7816 L 1007.6403,849.7816 L 1081.9083,852.1949 L 1090.3278,851.8917 L 1090.0945,849.0866 z"
       id="path3986" />
    <path
       style="opacity:1;fill:#f6e1b9;fill-opacity:1;fill-rule:evenodd;stroke:none;stroke-width:1px;stroke-linecap:butt;stroke-linejoin:miter;marker:none;marker-start:none;marker-mid:none;marker-end:none;stroke-miterlimit:4;stroke-dasharray:none;stroke-dashoffset:0;stroke-opacity:1;visibility:visible;display:inline;overflow:visible;enable-background:accumulate"
       d="M 1076.4639,511.0213 L 1107.0111,511.5773 L 1104.7361,628.6208 L 1072.7792,628.0396 L 1073.1389,609.4905 L 1087.2167,609.7432 L 1088.743,531.592 L 1076.0653,531.3646 L 1076.4639,511.0213 z"
       id="path3984" />
    <path
       style="opacity:1;fill:#f6e1b9;fill-opacity:1;fill-rule:evenodd;stroke:none;stroke-width:1px;stroke-linecap:butt;stroke-linejoin:miter;marker:none;marker-start:none;marker-mid:none;marker-end:none;stroke-miterlimit:4;stroke-dasharray:none;stroke-dashoffset:0;stroke-opacity:1;visibility:visible;display:inline;overflow:visible;enable-background:accumulate"
       d="M 1073.7513,647.0561 L 1102.9569,647.0561 L 1102.9569,672.0746 L 1073.7513,672.0746 L 1073.7513,647.0561 z"
       id="path3982" />
    <path
       style="opacity:1;fill:#f6e1b9;fill-opacity:1;fill-rule:evenodd;stroke:none;stroke-width:1px;stroke-linecap:butt;stroke-linejoin:miter;marker:none;marker-start:none;marker-mid:none;marker-end:none;stroke-miterlimit:4;stroke-dasharray:none;stroke-dashoffset:0;stroke-opacity:1;visibility:visible;display:inline;overflow:visible;enable-background:accumulate"
       d="M 1117.9778,648.6735 L 1119.5983,534.93847 L 1166.4936,621.88782 L 1179.3641,654.68139 L 1177.4495,687.02721 L 1118.8138,681.7661 L 1117.9778,648.6735 z"
       id="path3980"
       sodipodi:nodetypes="ccccccc" />
    <path
       style="opacity:1;fill:#f6e1b9;fill-opacity:1;fill-rule:evenodd;stroke:none;stroke-width:1px;stroke-linecap:butt;stroke-linejoin:miter;marker:none;marker-start:none;marker-mid:none;marker-end:none;stroke-miterlimit:4;stroke-dasharray:none;stroke-dashoffset:0;stroke-opacity:1;visibility:visible;display:inline;overflow:visible;enable-background:accumulate"
       d="M 1064.7291,582.4377 L 1037.6819,582.2228 L 1037.7986,568.4753 L 1043.6805,568.5132 L 1043.7487,560.6666 L 1048.6292,560.7171 L 1048.8042,539.7294 L 1042.6888,539.6788 L 1042.7764,530.4296 L 1037.8472,530.379 L 1037.9639,516.2777 L 1065.2931,516.5051 L 1064.7291,582.4377 z"
       id="path3978" />
    <path
       style="opacity:1;fill:#f6e1b9;fill-opacity:1;fill-rule:evenodd;stroke:none;stroke-width:1px;stroke-linecap:butt;stroke-linejoin:miter;marker:none;marker-start:none;marker-mid:none;marker-end:none;stroke-miterlimit:4;stroke-dasharray:none;stroke-dashoffset:0;stroke-opacity:1;visibility:visible;display:inline;overflow:visible;enable-background:accumulate"
       d="M 602.8458,1112.2102 L 569.4694,1057.3212 L 592.6278,1042.8787 L 602.6417,1062.2617 L 612.6556,1058.2183 L 615.7667,1062.9819 L 622.6694,1073.5579 L 611.8195,1080.0146 L 625.168,1101.0024 L 602.8458,1112.2102 z"
       id="path3976" />
    <path
       style="opacity:1;fill:#f6e1b9;fill-opacity:1;fill-rule:evenodd;stroke:none;stroke-width:1px;stroke-linecap:butt;stroke-linejoin:miter;marker:none;marker-start:none;marker-mid:none;marker-end:none;stroke-miterlimit:4;stroke-dasharray:none;stroke-dashoffset:0;stroke-opacity:1;visibility:visible;display:inline;overflow:visible;enable-background:accumulate"
       d="M 920.25,193.5 L 915.25,209.65625 L 891.875,211.25 L 884.375,201.5625 L 873.53125,199.96875 L 863.84375,203.1875 L 858.8125,215.28125 L 865.1875,233.0625 L 863.53125,244.34375 L 870.1875,244.34375 L 890.28125,604.125 L 890.375,621.40625 L 892.71875,647.9375 L 893.65625,652.96875 L 894.5625,664.75 L 867.375,664.78125 L 866.53125,689 L 934.125,689.8125 L 933.375,696.96875 L 947.5625,696.96875 L 986.78125,697.78125 L 980.09375,678.40625 L 998.53125,673.3125 L 1007.625,697.78125 L 1081.9062,700.1875 L 1110.3438,642.65625 L 1076.9688,641.84375 L 1081.125,632.96875 L 1129.5312,613.59375 L 1131.9688,598.5 L 1142,596.09375 L 1149.5,592.03125 L 1153.6562,583.96875 L 1155.3438,574.28125 L 1152.8438,564.59375 L 1146.1562,555.71875 L 1137.8125,550.0625 L 1127.8125,550.0625 L 1118.625,555.71875 L 1102,551.4375 L 1080.2812,560.3125 L 1073.625,550.625 L 1000.625,542.75 L 980.34375,233.84375 L 988.6875,229.8125 L 988.6875,216.90625 L 979.5,213.6875 L 968.65625,205.59375 L 920.25,193.5 z M 962.5,260.6875 L 970.53125,375.25 L 894.03125,379.46875 C 894.03125,379.46875 885.98186,267.03624 887.25,264.5 L 962.5,260.6875 z M 959.96875,402.28125 L 960.8125,420.0625 L 956.15625,420.46875 L 956.59375,428.09375 L 905,429.34375 C 905,429.34375 903.75435,406.6354 903.75,404.875 C 904.30986,405.2345 919.45249,404.84374 921.5,404.84375 C 923.61352,404.84375 923.62503,407.78124 923.625,407.78125 L 926.15625,409.46875 L 932.5,409.46875 L 939.25,408.625 L 942.21875,403.125 L 959.96875,402.28125 z M 976.4375,457.65625 L 986.59375,609.40625 L 942.625,629.71875 L 941.375,623.375 L 917.6875,625.0625 L 915.59375,602.21875 L 906.6875,602.65625 L 899.9375,460.625 L 976.4375,457.65625 z M 1015.3438,552.78125 L 1059.7188,557 L 1011.125,583.21875 C 1011.125,583.21875 1014.4984,558.27643 1015.3438,552.78125 z M 1081.2812,579.40625 L 1091.4375,598.4375 L 1077.4688,604.34375 L 1068.5938,585.75 L 1081.2812,579.40625 z M 1046.1875,600.96875 L 1075.7812,660.15625 L 1033.0938,679.59375 L 1003.9375,620.40625 L 1046.1875,600.96875 z M 972.65625,644.09375 L 979.84375,659.71875 L 961.65625,666.90625 C 961.65625,666.90625 956.57896,652.53458 956.15625,650.84375 L 972.65625,644.09375 z M 940.53125,645.78125 L 941.78125,658.875 L 924.03125,659.3125 C 924.03125,659.3125 924.46873,650.42935 924.46875,646.625 L 940.53125,645.78125 z M 916,647.875 L 916.4375,660.5625 L 899.09375,660.5625 L 898.65625,648.71875 L 916,647.875 z"
       transform="translate(0,151.99552)"
       id="path3970" />
    <path
       style="opacity:1;fill:#f6e1b9;fill-opacity:1;fill-rule:evenodd;stroke:none;stroke-width:1px;stroke-linecap:butt;stroke-linejoin:miter;marker:none;marker-start:none;marker-mid:none;marker-end:none;stroke-miterlimit:4;stroke-dasharray:none;stroke-dashoffset:0;stroke-opacity:1;visibility:visible;display:inline;overflow:visible;enable-background:accumulate"
       d="M 425.3861,900.2734 L 430.85,900.0586 L 430.1597,884.2515 L 443.6056,883.6955 L 443.2264,875.0022 L 456.925,874.4462 L 457.4111,885.5403 L 470.2736,885.0096 L 470.7792,896.6091 L 475.8347,896.4069 L 476.9333,921.5896 L 459.3069,922.3099 L 458.3833,901.0441 L 442.5653,901.6885 L 443.4305,921.5896 L 426.3486,922.2846 L 425.3861,900.2734 z"
       id="path3968" />
    <path
       style="opacity:1;fill:#f6e1b9;fill-opacity:1;fill-rule:evenodd;stroke:none;stroke-width:1px;stroke-linecap:butt;stroke-linejoin:miter;marker:none;marker-start:none;marker-mid:none;marker-end:none;stroke-miterlimit:4;stroke-dasharray:none;stroke-dashoffset:0;stroke-opacity:1;visibility:visible;display:inline;overflow:visible;enable-background:accumulate"
       d="M 684.8236,459.9609 L 817.0361,446.2007 L 820.7792,479.8619 L 796.9694,482.3511 L 795.9389,473.0387 L 766.4805,476.1092 L 767.132,481.9973 L 746.2389,484.1707 L 745.6069,478.4215 L 710.3639,482.0858 L 711.4819,492.1943 L 688.6736,494.5698 L 684.8236,459.9609 z"
       id="path3962" />
    <path
       style="opacity:1;fill:#f6e1b9;fill-opacity:1;fill-rule:evenodd;stroke:none;stroke-width:1px;stroke-linecap:butt;stroke-linejoin:miter;marker:none;marker-start:none;marker-mid:none;marker-end:none;stroke-miterlimit:4;stroke-dasharray:none;stroke-dashoffset:0;stroke-opacity:1;visibility:visible;display:inline;overflow:visible;enable-background:accumulate"
       d="M 307.9125,888.3328 L 303.9458,884.4662 L 303.1097,880.4355 L 305.618,877.2008 L 309.7889,877.2008 L 314.6597,880.1449 L 307.9125,888.3328 z"
       id="path3960" />
    <path
       style="opacity:1;fill:#f6e1b9;fill-opacity:1;fill-rule:evenodd;stroke:none;stroke-width:1px;stroke-linecap:butt;stroke-linejoin:miter;marker:none;marker-start:none;marker-mid:none;marker-end:none;stroke-miterlimit:4;stroke-dasharray:none;stroke-dashoffset:0;stroke-opacity:1;visibility:visible;display:inline;overflow:visible;enable-background:accumulate"
       d="M 254.2264,1003.582 L 252.2139,1007.9666 L 247.2069,1011.2012 L 241.3639,1011.2012 L 236.532,1009.5713 L 233.8486,1003.1271 L 234.6847,997.479 L 238.8556,993.4356 L 244.6986,992.627 L 251.2805,994.914 L 254.2264,1003.582 z"
       id="path3958" />
    <path
       style="opacity:1;fill:#f6e1b9;fill-opacity:1;fill-rule:evenodd;stroke:none;stroke-width:1px;stroke-linecap:butt;stroke-linejoin:miter;marker:none;marker-start:none;marker-mid:none;marker-end:none;stroke-miterlimit:4;stroke-dasharray:none;stroke-dashoffset:0;stroke-opacity:1;visibility:visible;display:inline;overflow:visible;enable-background:accumulate"
       d="M 467.6972,727.9492 L 479.3833,715.8316 L 476.875,708.5662 L 479.3833,701.3134 L 486.0528,698.8873 L 493.5681,702.1094 L 496.0667,709.3748 L 527.7806,710.1835 L 527.7806,723.0971 L 496.0667,722.2884 L 478.5472,739.2454 L 467.6972,727.9492 z"
       id="path3954" />
    <path
       style="opacity:1;fill:#f6e1b9;fill-opacity:1;fill-rule:evenodd;stroke:none;stroke-width:1px;stroke-linecap:butt;stroke-linejoin:miter;marker:none;marker-start:none;marker-mid:none;marker-end:none;stroke-miterlimit:4;stroke-dasharray:none;stroke-dashoffset:0;stroke-opacity:1;visibility:visible;display:inline;overflow:visible;enable-background:accumulate"
       d="M 1183.6028,925.077 L 1183.1653,912.3278 L 1195.5125,911.936 L 1195.95,924.6854 L 1183.6028,925.077 z"
       id="path3950" />
    <path
       style="opacity:1;fill:#f6e1b9;fill-opacity:1;fill-rule:evenodd;stroke:none;stroke-width:1px;stroke-linecap:butt;stroke-linejoin:miter;marker:none;marker-start:none;marker-mid:none;marker-end:none;stroke-miterlimit:4;stroke-dasharray:none;stroke-dashoffset:0;stroke-opacity:1;visibility:visible;display:inline;overflow:visible;enable-background:accumulate"
       d="M 1187.5305,916.7755 L 1191.2736,916.6365 L 1191.4292,920.5156 L 1187.6862,920.642 L 1187.5305,916.7755 z"
       id="path3946" />
    <path
       style="opacity:1;fill:#f6e1b9;fill-opacity:1;fill-rule:evenodd;stroke:none;stroke-width:1px;stroke-linecap:butt;stroke-linejoin:miter;marker:none;marker-start:none;marker-mid:none;marker-end:none;stroke-miterlimit:4;stroke-dasharray:none;stroke-dashoffset:0;stroke-opacity:1;visibility:visible;display:inline;overflow:visible;enable-background:accumulate"
       d="M 702.9847,667.9554 L 715.507,660.7025 L 719.6778,667.1593 L 731.3639,662.3073 L 734.6986,667.9554 L 753.8903,654.2331 L 749.7194,646.9803 L 765.5764,636.4801 L 781.4333,663.1159 L 768.9111,672.8074 L 723.8486,697.0172 L 702.9847,667.9554 z"
       id="path3944" />
    <path
       style="opacity:1;fill:#f6e1b9;fill-opacity:1;fill-rule:evenodd;stroke:none;stroke-width:1px;stroke-linecap:butt;stroke-linejoin:miter;marker:none;marker-start:none;marker-mid:none;marker-end:none;stroke-miterlimit:4;stroke-dasharray:none;stroke-dashoffset:0;stroke-opacity:1;visibility:visible;display:inline;overflow:visible;enable-background:accumulate"
       d="M 775.9305,1095.9229 L 839.3486,1094.3055 L 840.1847,1111.2626 L 822.6653,1112.0586 L 822.6653,1120.1327 L 841.0208,1119.324 L 842.6833,1137.8983 L 778.4389,1138.707 L 777.6028,1122.5587 L 799.293,1122.5587 L 798.457,1114.4846 L 777.6028,1113.6759 L 775.9305,1095.9229 z"
       id="path3942" />
    <path
       style="opacity:1;fill:#f6e1b9;fill-opacity:1;fill-rule:evenodd;stroke:none;stroke-width:1px;stroke-linecap:butt;stroke-linejoin:miter;marker:none;marker-start:none;marker-mid:none;marker-end:none;stroke-miterlimit:4;stroke-dasharray:none;stroke-dashoffset:0;stroke-opacity:1;visibility:visible;display:inline;overflow:visible;enable-background:accumulate"
       d="M 848.5264,1095.9229 L 852.3569,1095.9229 L 865.7153,1095.9229 L 869.3903,1095.9229 L 869.5847,1099.2208 L 870.2264,1110.4539 L 874.3972,1110.4539 L 874.3972,1121.75 L 869.3903,1121.75 L 871.0625,1146.7686 L 875.2333,1146.7686 L 875.9236,1165.1913 L 848.8278,1159.7705 L 846.0278,1114.4846 L 848.5264,1114.4846 L 848.5264,1095.9229 z"
       id="path3940" />
    <path
       style="opacity:1;fill:#f6e1b9;fill-opacity:1;fill-rule:evenodd;stroke:none;stroke-width:1px;stroke-linecap:butt;stroke-linejoin:miter;marker:none;marker-start:none;marker-mid:none;marker-end:none;stroke-miterlimit:4;stroke-dasharray:none;stroke-dashoffset:0;stroke-opacity:1;visibility:visible;display:inline;overflow:visible;enable-background:accumulate"
       d="M 841.8569,1013.5894 L 849.4208,1013.2861 L 874.4459,1012.3005 L 882.7389,1011.972 L 882.7389,1023.2682 L 891.0903,1022.4596 L 891.0903,1030.5337 L 896.9236,1029.725 L 897.7597,1045.0647 L 888.582,1045.8733 L 889.9139,1080.6843 L 873.2208,1080.6843 L 864.8792,1080.6843 L 851.5306,1080.6843 L 844.0153,1080.6843 L 839.0084,1080.6843 L 832.3292,1081.493 L 831.007,1042.6385 L 841.0208,1041.8425 L 841.0208,1035.3732 L 833.5056,1035.3732 L 833.5056,1029.725 L 842.6833,1028.9164 L 841.8569,1013.5894 z"
       id="path3938" />
    <path
       style="opacity:1;fill:#f6e1b9;fill-opacity:1;fill-rule:evenodd;stroke:none;stroke-width:1px;stroke-linecap:butt;stroke-linejoin:miter;marker:none;marker-start:none;marker-mid:none;marker-end:none;stroke-miterlimit:4;stroke-dasharray:none;stroke-dashoffset:0;stroke-opacity:1;visibility:visible;display:inline;overflow:visible;enable-background:accumulate"
       d="M 848.1375,990.8074 L 849.4208,1013.2861 L 841.8569,1013.5894 L 841.5458,998.6541 L 848.1375,990.8074 z"
       id="path3936" />
    <path
       style="opacity:1;fill:#f6e1b9;fill-opacity:1;fill-rule:evenodd;stroke:none;stroke-width:1px;stroke-linecap:butt;stroke-linejoin:miter;marker:none;marker-start:none;marker-mid:none;marker-end:none;stroke-miterlimit:4;stroke-dasharray:none;stroke-dashoffset:0;stroke-opacity:1;visibility:visible;display:inline;overflow:visible;enable-background:accumulate"
       d="M 874.4459,1012.3005 L 873.5709,990.7568 L 882.7486,990.7316 L 882.7389,1003.1903 L 882.7389,1011.972 L 874.4459,1012.3005 z"
       id="path3934" />
    <path
       style="opacity:1;fill:#f6e1b9;fill-opacity:1;fill-rule:evenodd;stroke:none;stroke-width:1px;stroke-linecap:butt;stroke-linejoin:miter;marker:none;marker-start:none;marker-mid:none;marker-end:none;stroke-miterlimit:4;stroke-dasharray:none;stroke-dashoffset:0;stroke-opacity:1;visibility:visible;display:inline;overflow:visible;enable-background:accumulate"
       d="M 869.5847,1099.2208 L 869.3903,1095.9229 L 865.7153,1095.9229 L 864.8792,1080.6843 L 873.2208,1080.6843 L 874.8931,1098.4501 L 869.5847,1099.2208 z"
       id="path3932" />
    <path
       style="opacity:1;fill:#f6e1b9;fill-opacity:1;fill-rule:evenodd;stroke:none;stroke-width:1px;stroke-linecap:butt;stroke-linejoin:miter;marker:none;marker-start:none;marker-mid:none;marker-end:none;stroke-miterlimit:4;stroke-dasharray:none;stroke-dashoffset:0;stroke-opacity:1;visibility:visible;display:inline;overflow:visible;enable-background:accumulate"
       d="M 844.0153,1080.6843 L 851.5306,1080.6843 L 852.3569,1095.9229 L 848.5264,1095.9229 L 844.8514,1096.024 L 844.0153,1080.6843 z"
       id="path3930" />
    <path
       style="opacity:1;fill:#f6e1b9;fill-opacity:1;fill-rule:evenodd;stroke:none;stroke-width:1px;stroke-linecap:butt;stroke-linejoin:miter;marker:none;marker-start:none;marker-mid:none;marker-end:none;stroke-miterlimit:4;stroke-dasharray:none;stroke-dashoffset:0;stroke-opacity:1;visibility:visible;display:inline;overflow:visible;enable-background:accumulate"
       d="M 893.2389,1147.7289 L 885.7333,1129.1671 L 883.225,1115.4323 L 884.8972,1096.0619 L 991.7056,1062.1606 L 999.2208,1080.7223 L 1004.2278,1104.9447 L 1005.8903,1134.8153 L 1005.0541,1146.1115 L 974.1861,1146.1115 L 933.2944,1146.1115 L 893.2389,1147.7289 z"
       id="path3928" />
    <path
       style="opacity:1;fill:#f6e1b9;fill-opacity:1;fill-rule:evenodd;stroke:none;stroke-width:1px;stroke-linecap:butt;stroke-linejoin:miter;marker:none;marker-start:none;marker-mid:none;marker-end:none;stroke-miterlimit:4;stroke-dasharray:none;stroke-dashoffset:0;stroke-opacity:1;visibility:visible;display:inline;overflow:visible;enable-background:accumulate"
       d="M 559.125,885.654 L 575.8181,887.2714 L 574.7778,898.6181 L 574.1945,905.0244 L 573.3097,914.7159 L 556.6264,914.7159 L 559.125,885.654 z"
       id="path3926" />
    <path
       style="opacity:1;fill:#f6e1b9;fill-opacity:1;fill-rule:evenodd;stroke:none;stroke-width:1px;stroke-linecap:butt;stroke-linejoin:miter;marker:none;marker-start:none;marker-mid:none;marker-end:none;stroke-miterlimit:4;stroke-dasharray:none;stroke-dashoffset:0;stroke-opacity:1;visibility:visible;display:inline;overflow:visible;enable-background:accumulate"
       d="M 574.7778,898.6181 L 587.0472,900.2481 L 585.9583,905.8583 L 574.1945,905.0244 L 574.7778,898.6181 z"
       id="path3924" />
    <path
       style="opacity:1;fill:#f6e1b9;fill-opacity:1;fill-rule:evenodd;stroke:none;stroke-width:1px;stroke-linecap:butt;stroke-linejoin:miter;marker:none;marker-start:none;marker-mid:none;marker-end:none;stroke-miterlimit:4;stroke-dasharray:none;stroke-dashoffset:0;stroke-opacity:1;visibility:visible;display:inline;overflow:visible;enable-background:accumulate"
       d="M 561.1569,722.2884 L 600.8528,714.5302 L 600.8528,729.8698 L 588.3306,728.2524 L 562.4597,729.8698 L 561.1569,722.2884 z"
       id="path3922" />
    <path
       style="opacity:1;fill:#f6e1b9;fill-opacity:1;fill-rule:evenodd;stroke:none;stroke-width:1px;stroke-linecap:butt;stroke-linejoin:miter;marker:none;marker-start:none;marker-mid:none;marker-end:none;stroke-miterlimit:4;stroke-dasharray:none;stroke-dashoffset:0;stroke-opacity:1;visibility:visible;display:inline;overflow:visible;enable-background:accumulate"
       d="M 680.9542,1013.1851 L 705.9889,1013.9937 L 709.3333,1072.9261 L 681.7903,1072.9261 L 680.9542,1013.1851 z"
       id="path3920" />
    <path
       style="opacity:1;fill:#f6e1b9;fill-opacity:1;fill-rule:evenodd;stroke:none;stroke-width:1px;stroke-linecap:butt;stroke-linejoin:miter;marker:none;marker-start:none;marker-mid:none;marker-end:none;stroke-miterlimit:4;stroke-dasharray:none;stroke-dashoffset:0;stroke-opacity:1;visibility:visible;display:inline;overflow:visible;enable-background:accumulate"
       d="M 676.7833,793.629 L 690.9681,797.6724 L 690.132,812.2033 L 675.1111,805.7465 L 676.7833,793.629 z"
       id="path3918" />
    <path
       style="opacity:1;fill:#f6e1b9;fill-opacity:1;fill-rule:evenodd;stroke:none;stroke-width:1px;stroke-linecap:butt;stroke-linejoin:miter;marker:none;marker-start:none;marker-mid:none;marker-end:none;stroke-miterlimit:4;stroke-dasharray:none;stroke-dashoffset:0;stroke-opacity:1;visibility:visible;display:inline;overflow:visible;enable-background:accumulate"
       d="M 655.0931,967.9875 L 663.4347,964.7528 L 665.1069,969.6049 L 693.4764,959.1047 L 696.8111,968.7962 L 669.2778,977.6664 L 670.9403,982.5184 L 662.5986,985.7405 L 660.1,981.7098 L 655.9194,982.5184 L 651.7486,976.0616 L 656.7556,973.6356 L 655.0931,967.9875 z"
       id="path3916" />
    <path
       style="opacity:1;fill:#f6e1b9;fill-opacity:1;fill-rule:evenodd;stroke:none;stroke-width:1px;stroke-linecap:butt;stroke-linejoin:miter;marker:none;marker-start:none;marker-mid:none;marker-end:none;stroke-miterlimit:4;stroke-dasharray:none;stroke-dashoffset:0;stroke-opacity:1;visibility:visible;display:inline;overflow:visible;enable-background:accumulate"
       d="M 794.85,764.2133 L 824.8917,773.0835 L 835.7416,780.3489 L 861.6125,760.1699 L 871.6264,756.1392 L 878.3055,756.1265 L 890.2736,756.1265 L 891.2264,773.0203 L 874.9611,774.7009 L 844.0833,795.6886 L 826.5639,797.3059 L 789.0167,777.9355 L 794.85,764.2133 z"
       id="path3914" />
    <path
       style="opacity:1;fill:#f6e1b9;fill-opacity:1;fill-rule:evenodd;stroke:none;stroke-width:1px;stroke-linecap:butt;stroke-linejoin:miter;marker:none;marker-start:none;marker-mid:none;marker-end:none;stroke-miterlimit:4;stroke-dasharray:none;stroke-dashoffset:0;stroke-opacity:1;visibility:visible;display:inline;overflow:visible;enable-background:accumulate"
       d="M 871.6264,756.1392 L 869.9542,734.3428 L 869.9542,716.5898 L 874.9611,716.5898 L 878.3055,756.1265 L 871.6264,756.1392 z"
       id="path3912" />
    <path
       style="opacity:1;fill:#f6e1b9;fill-opacity:1;fill-rule:evenodd;stroke:none;stroke-width:1px;stroke-linecap:butt;stroke-linejoin:miter;marker:none;marker-start:none;marker-mid:none;marker-end:none;stroke-miterlimit:4;stroke-dasharray:none;stroke-dashoffset:0;stroke-opacity:1;visibility:visible;display:inline;overflow:visible;enable-background:accumulate"
       d="M 684.707,1086.282 L 713.0764,1087.8993 L 767.3167,1095.1648 L 763.1458,1136.3315 L 753.9681,1136.3315 L 749.7972,1150.0538 L 725.5986,1147.6278 L 726.425,1140.3623 L 703.8986,1140.3623 L 703.8986,1151.6711 L 691.3764,1151.6711 L 688.8778,1128.2574 L 699.7278,1128.2574 L 700.5639,1120.9919 L 688.0417,1120.1832 L 684.707,1086.282 z"
       id="path3910" />
    <path
       style="font-size:12px;font-style:normal;font-weight:normal;opacity:1;fill:#f6e1b9;fill-opacity:1;fill-rule:evenodd;stroke:none;stroke-width:1px;stroke-linecap:butt;stroke-linejoin:miter;marker:none;marker-start:none;marker-mid:none;marker-end:none;stroke-miterlimit:4;stroke-dasharray:none;stroke-dashoffset:0;stroke-opacity:1;visibility:visible;display:inline;overflow:visible;enable-background:accumulate;font-family:Dialog"
       d="M 1189.7148,689.10371 L 1219.5982,689.79993 L 1221.7589,633.30999 L 1200.625,632.01737 L 1200.4473,637.84022 L 1189.768,637.29842 L 1177.3398,601.08597 L 1181.1393,598.17986 L 1171.1717,581.47012 L 1161.1673,587.42477 L 1170.2165,605.61753 L 1185.8772,650.34726 L 1189.7148,689.10371 z"
       id="path4466" />
    <path
       style="font-size:12px;font-style:normal;font-weight:normal;opacity:1;fill:#f6e1b9;fill-opacity:1;fill-rule:evenodd;stroke:none;stroke-width:1px;stroke-linecap:butt;stroke-linejoin:miter;marker:none;marker-start:none;marker-mid:none;marker-end:none;stroke-miterlimit:4;stroke-dasharray:none;stroke-dashoffset:0;stroke-opacity:1;visibility:visible;display:inline;overflow:visible;enable-background:accumulate;font-family:Dialog"
       d="M 1184.5223,570.65275 L 1213.5268,571.538 L 1215.7938,518.72096 L 1170.2284,516.89852 L 1169.3973,529.82489 L 1151.668,538.56586 L 1149.1629,534.81973 L 1134.7378,542.58224 L 1158.8632,581.74204 L 1163.7465,579.08487 L 1164.0831,575.20963 C 1176.3751,577.74341 1175.3888,564.76158 1166.7979,564.9311 L 1164.5504,559.89767 L 1161.8742,561.75875 L 1155.8132,552.93928 L 1174.4675,542.49965 L 1182.8484,553.98028 L 1184.2596,529.1992 L 1195.1635,529.53199 L 1193.7993,559.92692 L 1184.1972,559.84973 L 1184.5223,570.65275 z"
       id="path4468"
       sodipodi:nodetypes="cccccccccccccccccccccc" />
    <path
       style="font-size:12px;font-style:normal;font-weight:normal;opacity:1;fill:#f6e1b9;fill-opacity:1;fill-rule:evenodd;stroke:none;stroke-width:1px;stroke-linecap:butt;stroke-linejoin:miter;marker:none;marker-start:none;marker-mid:none;marker-end:none;stroke-miterlimit:4;stroke-dasharray:none;stroke-dashoffset:0;stroke-opacity:1;visibility:visible;display:inline;overflow:visible;enable-background:accumulate;font-family:Dialog"
       d="M 1118.6729,512.00132 L 1148.3244,513.13659 L 1150.3909,473.37715 L 1130.1309,472.23788 L 1129.0879,494.33315 L 1119.2898,493.67065 L 1121.1677,457.25466 L 1128.0618,454.54502 L 1130.0904,448.37389 L 1138.0957,450.03462 L 1140.8132,457.50196 L 1161.9682,467.75342 L 1178.0753,464.16773 L 1209.325,473.36731 L 1208.3311,490.38487 L 1199.613,489.98757 L 1199.8566,479.84736 L 1171.3045,478.5462 L 1169.7312,508.28052 L 1219.2265,510.10411 L 1220.3659,485.10171 L 1225.8343,484.91894 L 1226.6808,471.13444 L 1109.7365,434.91917 L 1105.967,498.46316 L 1119.4605,499.51004 L 1118.6729,512.00132 z"
       id="path4470"
       sodipodi:nodetypes="ccccccccccccccccccccccccccc" />
    <path
       style="opacity:1;fill:#f6e1b9;fill-opacity:1;fill-rule:evenodd;stroke:none;stroke-width:1px;stroke-linecap:butt;stroke-linejoin:miter;marker:none;marker-start:none;marker-mid:none;marker-end:none;stroke-miterlimit:4;stroke-dasharray:none;stroke-dashoffset:0;stroke-opacity:1;visibility:visible;display:inline;overflow:visible;enable-background:accumulate"
       d="M 1169.2882,549.70581 L 1222.492,550.90141 L 1219.503,617.25672 L 1219.503,625.02806 L 1184.2331,626.82145 L 1159.7234,623.23467 L 1169.2882,549.70581 z"
       id="path4472"
       transform="translate(0,151.99552)" />
    <path
       style="font-size:12px;font-style:normal;font-weight:normal;opacity:1;fill:#f6e1b9;fill-opacity:1;fill-rule:evenodd;stroke:none;stroke-width:1px;stroke-linecap:butt;stroke-linejoin:miter;marker:none;marker-start:none;marker-mid:none;marker-end:none;stroke-miterlimit:4;stroke-dasharray:none;stroke-dashoffset:0;stroke-opacity:1;visibility:visible;display:inline;overflow:visible;enable-background:accumulate;font-family:Dialog"
       d="M 321.47566,958.23387 L 312.11335,973.75168 L 316.33299,976.35976 L 313.69572,981.18459 L 321.93719,985.61824 L 324.64039,980.663 L 329.38747,983.14067 L 327.07986,987.50904 L 333.01371,990.63876 L 335.65099,986.00947 L 340.72773,988.55232 L 338.35419,993.31197 L 345.93634,996.7024 L 356.08983,978.57656 L 346.66159,972.77369 L 344.35398,976.29458 L 334.92574,970.88283 L 337.03555,967.42722 L 321.47566,958.23387 z"
       id="path4474"
       sodipodi:nodetypes="ccccccccccccccccccc"
       inkscape:export-xdpi="68"
       inkscape:export-ydpi="68" />
    <path
       style="font-size:12px;font-style:normal;font-weight:normal;opacity:1;fill:#f6e1b9;fill-opacity:1;fill-rule:evenodd;stroke:none;stroke-width:1px;stroke-linecap:butt;stroke-linejoin:miter;marker:none;marker-start:none;marker-mid:none;marker-end:none;stroke-miterlimit:4;stroke-dasharray:none;stroke-dashoffset:0;stroke-opacity:1;visibility:visible;display:inline;overflow:visible;enable-background:accumulate;font-family:Dialog"
       d="M 836.79818,355.24552 L 810.20621,363.86991 L 812.0166,369.52871 C 807.88819,371.49658 797.66897,380.29512 809.07842,394.5243 L 802.78657,396.09787 L 799.16579,376.12561 L 786.55241,378.8491 L 786.34466,383.63034 L 774.41389,385.89991 L 773.73128,381.57259 L 762.48311,383.63034 L 762.69086,387.71557 L 750.31491,390.19698 L 749.86973,386.11174 L 738.59188,388.6234 L 739.06674,392.92047 L 726.21593,394.97822 L 725.77075,390.89298 L 715.62069,393.37438 L 714.96776,397.70171 L 702.35438,400.18311 L 701.2266,392.92047 L 675.99984,398.36745 L 680.95615,424.48269 L 666.53238,428.11401 C 650.46903,412.71168 634.56644,426.68236 634.80602,439.64345 C 635.0925,455.14269 662.00189,466.47439 669.47056,439.94606 L 684.33951,436.07266 L 684.78468,441.06572 L 816.97292,421.09346 L 817.18067,424.27086 L 821.24663,424.02878 L 821.48406,434.92274 L 821.83376,446.45291 L 816.85506,446.87744 L 818.04134,453.95691 L 827.9243,452.68595 L 826.64812,430.8375 L 874.29982,428.93106 L 871.7661,413.04403 L 836.32333,414.49656 L 844.663,363.86991 L 849.17414,363.86991 L 850.30192,357.06118 L 843.09003,355.24552 L 836.79818,355.24552 z"
       id="path4507"
       sodipodi:nodetypes="cccccccccccccccccccccccccscccccccccccccccccccc" />
    <path
       style="opacity:1;fill:#f6e1b9;fill-opacity:1;fill-rule:evenodd;stroke:none;stroke-width:1px;stroke-linecap:butt;stroke-linejoin:miter;marker:none;marker-start:none;marker-mid:none;marker-end:none;stroke-miterlimit:4;stroke-dasharray:none;stroke-dashoffset:0;stroke-opacity:1;visibility:visible;display:inline;overflow:visible;enable-background:accumulate"
       d="M 1039.4324,351.57005 L 1090.5797,352.41546 L 1091.4251,294.92754 L 1040.7005,294.08212 L 1039.4324,351.57005 z"
       id="path4539"
       transform="translate(0,151.99552)"
       sodipodi:nodetypes="ccccc" />
  </g>
  <g
     inkscape:groupmode="layer"
     id="layer2"
     inkscape:label="admin"
     style="display:inline"
     transform="translate(0,-151.99552)">
    <path
       clip-path="url(#clipPath1)"
       d="M 908.3555,1076.7909 L 908.3555,1076.7909 L 908.3555,1076.7909 L 922.04766,1075.6499 L 928.79683,1150.0115 L 923.76459,1176.5204 L 756.41881,1142.6086 L 753.54859,1163.8303 L 660.91687,1159.3732 L 567.09444,1132.8927 L 569.3722,1098.3616 L 362.9695,1073.8485 L 361.1417,1096.2767 L 282.5472,1113.0695 L 264.6972,1095.7965 L 284.1708,1072.8882 L 164.4125,973.3577 L 147.5347,993.7642 L 71.9153,953.8989 L 153.0472,903.6724 L 178.3639,923.4471 L 276.3736,822.9814 L 263.9583,806.9595 L 280.6514,772.2496 L 327.3278,736.0233 L 352.6444,747.9513 L 371.7486,684.925 L 393.1667,610.337 L 370.6403,603.8802 L 377.6403,563.4843 L 411.8528,546.5273 L 431.0444,565.8977 L 536.6959,461.0222 L 517.825,449.6755 L 537.5319,381.1274 L 618.8,371.3727 L 624.3125,394.837 L 677.7167,385.9668 L 676.8903,380.3061 L 731.4514,363.3112 L 793.5278,355.9068 L 794.8694,361.6938 L 860.7958,343.1322 L 856.275,330.0164 L 854.1166,323.7618 L 1012.6667,269.6815 L 1012.6667,269.6815 L 1038.7876,408.92747 L 1227.7513,467.7065 L 1221.1888,782.0674 L 1218.9722,791.0134 L 1230.5028,795.4232 L 1239.9819,800.7807 L 1248.3917,806.8964 C 1248.3917,806.8964 1263.197,822.77141 1268.586,830.37622 C 1273.9749,837.98104 1279.6982,845.13372 1283.3596,853.4637 C 1287.021,861.79368 1293.1287,870.1475 1294.9801,886.97452 C 1296.8315,903.80154 1298.8884,913.98132 1297.4626,931.95645 C 1296.0396,949.89557 1291.8115,977.21034 1288.634,984.63657 C 1285.4565,992.0628 1280.208,1001.2193 1274.4133,1008.7994 C 1268.6185,1016.3795 1257.4136,1029.1904 1252.2028,1033.7432 C 1246.992,1038.2959 1244.9215,1038.8952 1241.6444,1040.8569 C 1238.3501,1042.8289 1233.8423,1045.2878 1230.3278,1046.8336 C 1226.9317,1048.3273 1218.6805,1050.9907 1218.6805,1050.9907 L 1206.2069,1053.6821 L 1193.1014,1054.4908 L 1177.7598,1054.0486 L 1165.0431,1052.1659 L 1148.0972,1045.7975 L 1131.8319,1035.7649 L 1128.5847,1033.0861 L 1120.3889,1026.3008 L 1113.1263,1017.7592 L 1103.1028,1005.2751 L 1098.0181,996.7209 L 1094.7805,996.822 L 1093.05,992.7786 L 1076.8722,995.0656 L 992.8722,1006.9431 L 952.2236,1012.6923 L 906.6847,1018.7321 L 908.3555,1076.7909 L 908.3555,1076.7909"
       id="path3755"
       style="opacity:1;fill:none;fill-opacity:1;fill-rule:evenodd;stroke:#646464;stroke-width:7;stroke-linecap:butt;stroke-linejoin:miter;marker:none;marker-start:none;marker-mid:none;marker-end:none;stroke-miterlimit:4;stroke-dasharray:none;stroke-dashoffset:0;stroke-opacity:1;visibility:visible;display:inline;overflow:visible;enable-background:accumulate"
       sodipodi:nodetypes="cccccccccccccccccczzzzzzzsscccccccccccccccccccccccccccccccccccccccccccccccccccccccc" />
    <path
       style="opacity:1;fill:none;fill-opacity:1;fill-rule:evenodd;stroke:#646464;stroke-width:7;stroke-linecap:butt;stroke-linejoin:miter;marker:none;marker-start:none;marker-mid:none;marker-end:none;stroke-miterlimit:4;stroke-dasharray:14, 7;stroke-dashoffset:0;stroke-opacity:1;visibility:visible;display:inline;overflow:visible;enable-background:accumulate"
       d="M 928.21101,1156.844 L 1116.7844,1154.8899 L 1117.7615,1028.8486"
       id="path3885" />
  </g>
</svg>
